M48
;Layer_Color=9474304
;FILE_FORMAT=2:5
INCH,LZ
;TYPE=PLATED
T1F00S00C0.01300
T2F00S00C0.04000
%
T01
X00315Y-00035
Y0011
X00385Y00115
X00375Y00065
X00385Y0021
X0036Y00374
X00355Y0044
X0044Y0041
X00545Y00415
X0025Y0045
T02
X0Y-0001
X001
Y0009
Y0019
Y0029
Y0039
Y0049
X0
Y0039
Y0029
Y0019
Y0009
X0021Y0004
X0031
M30
