G04 Layer_Color=8388736*
%FSLAX25Y25*%
%MOIN*%
G70*
G01*
G75*
%ADD20C,0.00100*%
%ADD29R,0.02769X0.02178*%
%ADD30O,0.01587X0.03556*%
%ADD31O,0.03556X0.01587*%
%ADD32R,0.04343X0.03950*%
%ADD33R,0.04800X0.04600*%
%ADD34R,0.06312X0.04737*%
%ADD35R,0.04600X0.04800*%
%ADD36C,0.07300*%
%ADD37R,0.07300X0.07300*%
%ADD38R,0.07300X0.07300*%
%ADD39C,0.02400*%
%ADD40C,0.02800*%
D20*
X-6000Y-7000D02*
Y55000D01*
X57500D01*
X-6000Y-7000D02*
X57500D01*
Y55000D01*
D29*
X37850Y2839D02*
D03*
Y280D02*
D03*
Y-2279D02*
D03*
Y-4839D02*
D03*
X44150D02*
D03*
Y-2279D02*
D03*
Y280D02*
D03*
Y2839D02*
D03*
D30*
X21165Y51165D02*
D03*
X22740D02*
D03*
X24315D02*
D03*
X25890D02*
D03*
X27465D02*
D03*
X29039D02*
D03*
Y38961D02*
D03*
X27465D02*
D03*
X25890D02*
D03*
X24315D02*
D03*
X22740D02*
D03*
X21165D02*
D03*
D31*
X31205Y49000D02*
D03*
Y47425D02*
D03*
Y45850D02*
D03*
Y44276D02*
D03*
Y42701D02*
D03*
Y41126D02*
D03*
X19000D02*
D03*
Y42701D02*
D03*
Y44276D02*
D03*
Y45850D02*
D03*
Y47425D02*
D03*
Y49000D02*
D03*
D32*
X45500Y33347D02*
D03*
Y26654D02*
D03*
X38500Y33347D02*
D03*
Y26654D02*
D03*
X30000Y23347D02*
D03*
Y16654D02*
D03*
X22000Y23347D02*
D03*
Y16654D02*
D03*
D33*
X23500Y32000D02*
D03*
X30500D02*
D03*
X38500Y50000D02*
D03*
X45500D02*
D03*
D34*
X47331Y12260D02*
D03*
Y19740D02*
D03*
X38669Y16000D02*
D03*
D35*
X52000Y-1500D02*
D03*
Y5500D02*
D03*
D36*
X0Y49000D02*
D03*
X10000D02*
D03*
Y9000D02*
D03*
Y19000D02*
D03*
Y29000D02*
D03*
Y39000D02*
D03*
X0D02*
D03*
Y29000D02*
D03*
Y19000D02*
D03*
Y9000D02*
D03*
Y-1000D02*
D03*
X31000Y4000D02*
D03*
D37*
X10000Y-1000D02*
D03*
D38*
X21000Y4000D02*
D03*
D39*
X38500Y11500D02*
D03*
X36000Y37400D02*
D03*
X31500Y-3500D02*
D03*
D40*
X35500Y44000D02*
D03*
X44000Y41000D02*
D03*
X54500Y41500D02*
D03*
X31500Y11000D02*
D03*
X37500Y6500D02*
D03*
X38500Y21000D02*
D03*
X25000Y45000D02*
D03*
M02*
