G04 Layer_Physical_Order=1*
G04 Layer_Color=255*
%FSLAX25Y25*%
%MOIN*%
G70*
G01*
G75*
%ADD10R,0.01969X0.01378*%
%ADD11O,0.00787X0.02756*%
%ADD12O,0.02756X0.00787*%
%ADD13R,0.03543X0.03150*%
%ADD14R,0.04000X0.03800*%
%ADD15R,0.05512X0.03937*%
%ADD16R,0.03800X0.04000*%
%ADD17C,0.00600*%
%ADD18C,0.00800*%
%ADD19C,0.01000*%
%ADD20C,0.00100*%
%ADD21C,0.06500*%
%ADD22R,0.06500X0.06500*%
%ADD23R,0.06500X0.06500*%
%ADD24C,0.01600*%
%ADD25C,0.02000*%
G36*
X50082Y52120D02*
Y32534D01*
X46377Y28828D01*
X44767D01*
X43646Y29949D01*
X43315Y30170D01*
X42925Y30248D01*
X33628D01*
X33500Y30353D01*
Y31500D01*
X31000D01*
Y28895D01*
X31158Y28600D01*
X31104Y28520D01*
X14199D01*
X13870Y28896D01*
X13883Y29000D01*
X13751Y30005D01*
X13363Y30942D01*
X12746Y31746D01*
X11942Y32363D01*
X11005Y32751D01*
X10000Y32883D01*
X8995Y32751D01*
X8058Y32363D01*
X7254Y31746D01*
X6918Y31307D01*
X6418Y31477D01*
Y34120D01*
X7703Y35405D01*
X7857Y35288D01*
X8890Y34859D01*
X10000Y34713D01*
X11109Y34859D01*
X12143Y35288D01*
X13031Y35969D01*
X13712Y36857D01*
X14141Y37890D01*
X14145Y37923D01*
X14618Y38084D01*
X17851Y34851D01*
X18149Y34652D01*
X18500Y34582D01*
X20434D01*
X20900Y34500D01*
Y29500D01*
X26100D01*
Y33702D01*
X26539Y34141D01*
X26737Y34439D01*
X26807Y34790D01*
Y36184D01*
X26965Y36310D01*
Y38961D01*
Y41266D01*
X26921Y41258D01*
X26460Y40950D01*
X26435Y40912D01*
X26278Y40881D01*
X25890Y40958D01*
X25502Y40881D01*
X25345Y40912D01*
X25320Y40950D01*
X24859Y41258D01*
X24815Y41266D01*
Y38961D01*
X23815D01*
Y41266D01*
X23771Y41258D01*
X23310Y40950D01*
X23285Y40912D01*
X23128Y40881D01*
X22740Y40958D01*
X22352Y40881D01*
X22341Y40874D01*
X21953Y40694D01*
X21564Y40874D01*
X21553Y40881D01*
X21165Y40958D01*
X20938Y41423D01*
X20920Y41514D01*
X20913Y41525D01*
X20733Y41913D01*
X20913Y42302D01*
X20920Y42313D01*
X20997Y42701D01*
X20920Y43088D01*
X20913Y43100D01*
X20733Y43488D01*
X20913Y43877D01*
X20920Y43888D01*
X20997Y44276D01*
X20920Y44663D01*
X20913Y44674D01*
X20733Y45063D01*
X20913Y45452D01*
X20920Y45463D01*
X20997Y45850D01*
X20920Y46238D01*
X20913Y46249D01*
X20733Y46638D01*
X20913Y47026D01*
X20920Y47038D01*
X20997Y47425D01*
X20920Y47813D01*
X20913Y47824D01*
X20733Y48213D01*
X20913Y48601D01*
X20920Y48612D01*
X20938Y48703D01*
X21165Y49168D01*
X21553Y49245D01*
X21564Y49253D01*
X21953Y49432D01*
X22341Y49253D01*
X22352Y49245D01*
X22740Y49168D01*
X23128Y49245D01*
X23139Y49253D01*
X23528Y49432D01*
X23916Y49253D01*
X23927Y49245D01*
X24315Y49168D01*
X24703Y49245D01*
X24714Y49253D01*
X25102Y49432D01*
X25491Y49253D01*
X25502Y49245D01*
X25890Y49168D01*
X26278Y49245D01*
X26435Y49214D01*
X26460Y49176D01*
X26921Y48868D01*
X26965Y48860D01*
Y51165D01*
X27965D01*
Y48860D01*
X28008Y48868D01*
X28314Y49073D01*
X28435Y49054D01*
X28793Y48890D01*
X28827Y48860D01*
X28908Y48456D01*
X29216Y47995D01*
X29253Y47970D01*
X29284Y47813D01*
X29207Y47425D01*
X29284Y47038D01*
X29292Y47026D01*
X29471Y46638D01*
X29292Y46249D01*
X29284Y46238D01*
X29207Y45850D01*
X29284Y45463D01*
X29292Y45452D01*
X29471Y45063D01*
X29292Y44674D01*
X29284Y44663D01*
X29207Y44276D01*
X29284Y43888D01*
X29292Y43877D01*
X29471Y43488D01*
X29292Y43100D01*
X29284Y43088D01*
X29207Y42701D01*
X29284Y42313D01*
X29292Y42302D01*
X29471Y41913D01*
X29292Y41525D01*
X29284Y41514D01*
X29266Y41423D01*
X29094Y41071D01*
X28743Y40899D01*
X28652Y40881D01*
X28494Y40912D01*
X28469Y40950D01*
X28008Y41258D01*
X27965Y41266D01*
Y38961D01*
Y36655D01*
X28008Y36664D01*
X28469Y36972D01*
X28494Y37009D01*
X28652Y37040D01*
X29039Y36963D01*
X29427Y37040D01*
X29756Y37260D01*
X29975Y37589D01*
X30053Y37976D01*
Y39636D01*
X30177Y39989D01*
X30529Y40113D01*
X32189D01*
X32577Y40190D01*
X32604Y40208D01*
X34829D01*
X35082Y39900D01*
Y38471D01*
X34991Y38409D01*
X34681Y37946D01*
X34573Y37400D01*
X34681Y36854D01*
X34991Y36391D01*
X35454Y36081D01*
X36000Y35973D01*
X36021Y35977D01*
X36128Y35488D01*
Y31172D01*
X40872D01*
Y32429D01*
X43128D01*
Y31172D01*
X47872D01*
Y35521D01*
X43128D01*
Y34264D01*
X40872D01*
Y35521D01*
X39167D01*
X39149Y35549D01*
X37406Y37292D01*
X37427Y37400D01*
X37319Y37946D01*
X37009Y38409D01*
X36918Y38471D01*
Y39520D01*
X37875Y40477D01*
X37875Y40477D01*
X39149Y41751D01*
X39348Y42049D01*
X39418Y42400D01*
Y47500D01*
X41100D01*
Y52500D01*
X41566Y52582D01*
X42500D01*
Y50500D01*
X48500D01*
Y52582D01*
X49620D01*
X50082Y52120D01*
D02*
G37*
G36*
X35900Y52500D02*
Y47500D01*
X37582D01*
Y45383D01*
X37082Y45232D01*
X36942Y45442D01*
X36280Y45884D01*
X36000Y45940D01*
Y44000D01*
X35000D01*
Y45940D01*
X34720Y45884D01*
X34058Y45442D01*
X33675Y44868D01*
X33313Y44844D01*
X33129Y44883D01*
X32982Y45158D01*
X33118Y45452D01*
X33125Y45463D01*
X33202Y45850D01*
X33125Y46238D01*
X33118Y46249D01*
X32938Y46638D01*
X33118Y47026D01*
X33125Y47038D01*
X33202Y47425D01*
X33125Y47813D01*
X33156Y47970D01*
X33194Y47995D01*
X33502Y48456D01*
X33511Y48500D01*
X31205D01*
Y49000D01*
X30705D01*
Y50421D01*
X30220D01*
X30053Y50559D01*
Y52150D01*
X30476Y52582D01*
X35434D01*
X35900Y52500D01*
D02*
G37*
G36*
X57500Y20429D02*
X57000Y20222D01*
X49920Y27302D01*
X49622Y27501D01*
X49271Y27571D01*
X48423D01*
X48215Y28071D01*
X51649Y31505D01*
X51848Y31802D01*
X51918Y32154D01*
Y52500D01*
X51848Y52851D01*
X51649Y53149D01*
X50649Y54149D01*
X50351Y54348D01*
X50000Y54418D01*
X23000D01*
X22649Y54348D01*
X22351Y54149D01*
X22091Y53889D01*
X21901Y53604D01*
X21891Y53591D01*
X21353Y53444D01*
X20649Y54149D01*
X20351Y54348D01*
X20000Y54418D01*
X5000D01*
X4649Y54348D01*
X4351Y54149D01*
X4152Y53851D01*
X4082Y53500D01*
Y50511D01*
X3582Y50412D01*
X3363Y50942D01*
X2746Y51746D01*
X1942Y52363D01*
X1005Y52751D01*
X0Y52883D01*
X-1005Y52751D01*
X-1942Y52363D01*
X-2746Y51746D01*
X-3363Y50942D01*
X-3751Y50005D01*
X-3883Y49000D01*
X-3751Y47995D01*
X-3363Y47058D01*
X-2746Y46254D01*
X-1942Y45637D01*
X-1005Y45249D01*
X0Y45117D01*
X1005Y45249D01*
X1942Y45637D01*
X2746Y46254D01*
X3363Y47058D01*
X3582Y47588D01*
X4082Y47489D01*
Y43500D01*
X4152Y43149D01*
X4351Y42851D01*
X6221Y40982D01*
X5859Y40110D01*
X5713Y39000D01*
X5859Y37890D01*
X6288Y36857D01*
X6405Y36703D01*
X4851Y35149D01*
X4652Y34851D01*
X4582Y34500D01*
Y25000D01*
X4652Y24649D01*
X4851Y24351D01*
X6351Y22851D01*
X6649Y22652D01*
X7000Y22582D01*
X7523D01*
X7693Y22082D01*
X7254Y21746D01*
X6637Y20942D01*
X6249Y20005D01*
X6117Y19000D01*
X6249Y17995D01*
X6637Y17058D01*
X7254Y16254D01*
X8058Y15637D01*
X8995Y15249D01*
X10000Y15117D01*
X11005Y15249D01*
X11942Y15637D01*
X12746Y16254D01*
X13363Y17058D01*
X13751Y17995D01*
X13883Y19000D01*
X13751Y20005D01*
X13363Y20942D01*
X12746Y21746D01*
X12307Y22082D01*
X12477Y22582D01*
X12500D01*
X12851Y22652D01*
X13149Y22851D01*
X15580Y25282D01*
X19628D01*
Y21172D01*
X24372D01*
Y22429D01*
X27628D01*
Y21172D01*
X30877D01*
X33582Y18466D01*
Y13096D01*
X33652Y12745D01*
X33851Y12447D01*
X37147Y9151D01*
X37346Y9018D01*
X37331Y8611D01*
X37293Y8498D01*
X36720Y8384D01*
X36058Y7942D01*
X35616Y7280D01*
X35560Y7000D01*
X39440D01*
X39384Y7280D01*
X38942Y7942D01*
X38280Y8384D01*
X38338Y8882D01*
X44871D01*
X45222Y8952D01*
X45520Y9151D01*
X46060Y9691D01*
X50687D01*
Y14828D01*
X43975D01*
Y10718D01*
X40217D01*
X39871Y11218D01*
X39927Y11500D01*
X39819Y12046D01*
X39791Y12088D01*
Y13431D01*
X42025D01*
Y18568D01*
X39091D01*
X39041Y19069D01*
X39280Y19116D01*
X39942Y19558D01*
X40384Y20220D01*
X40440Y20500D01*
X36560D01*
X36616Y20220D01*
X37058Y19558D01*
X37720Y19116D01*
X37959Y19069D01*
X37909Y18568D01*
X35418D01*
Y18846D01*
X35348Y19198D01*
X35149Y19495D01*
X32372Y22273D01*
Y25282D01*
X32438D01*
X32790Y25352D01*
X33087Y25551D01*
X33272Y25736D01*
X36128D01*
Y24479D01*
X39377D01*
X41583Y22273D01*
X41881Y22074D01*
X42232Y22004D01*
X43575D01*
Y20240D01*
X47331D01*
Y19740D01*
X47831D01*
Y16772D01*
X51087D01*
Y20030D01*
X51549Y20222D01*
X54382Y17388D01*
Y8500D01*
X52500D01*
Y5500D01*
Y2500D01*
X54382D01*
Y1100D01*
X50612D01*
X50572Y1127D01*
X50221Y1197D01*
X46134D01*
Y2339D01*
X44150D01*
Y2839D01*
X43650D01*
Y4528D01*
X42165D01*
Y2786D01*
X41703Y2594D01*
X40810Y3487D01*
X40513Y3686D01*
X40161Y3756D01*
X39435D01*
Y4128D01*
X38381D01*
X38288Y4580D01*
X38298Y4628D01*
X38942Y5058D01*
X39384Y5720D01*
X39440Y6000D01*
X35560D01*
X35616Y5720D01*
X36058Y5058D01*
X36702Y4628D01*
X36712Y4580D01*
X36619Y4128D01*
X36266D01*
Y1969D01*
X35866D01*
Y779D01*
X37850D01*
Y-221D01*
X35866D01*
Y-1362D01*
X32721D01*
X32369Y-1432D01*
X32072Y-1631D01*
X31608Y-2094D01*
X31500Y-2073D01*
X30954Y-2181D01*
X30491Y-2491D01*
X30181Y-2954D01*
X30073Y-3500D01*
X30181Y-4046D01*
X30491Y-4509D01*
X30954Y-4819D01*
X31500Y-4927D01*
X32046Y-4819D01*
X32509Y-4509D01*
X32819Y-4046D01*
X32927Y-3500D01*
X33331Y-3197D01*
X35866D01*
Y-4339D01*
X37850D01*
Y-5339D01*
X35866D01*
Y-6500D01*
X35866Y-6527D01*
X35800Y-7000D01*
X-6000D01*
Y55000D01*
X57500D01*
Y20429D01*
D02*
G37*
%LPC*%
G36*
X48500Y49500D02*
X46000D01*
Y47100D01*
X48500D01*
Y49500D01*
D02*
G37*
G36*
X45000D02*
X42500D01*
Y47100D01*
X45000D01*
Y49500D01*
D02*
G37*
G36*
X25000Y46631D02*
X24376Y46507D01*
X23846Y46154D01*
X23493Y45624D01*
X23369Y45000D01*
X23493Y44376D01*
X23846Y43846D01*
X24376Y43493D01*
X25000Y43369D01*
X25624Y43493D01*
X26153Y43846D01*
X26507Y44376D01*
X26631Y45000D01*
X26507Y45624D01*
X26153Y46154D01*
X25624Y46507D01*
X25000Y46631D01*
D02*
G37*
G36*
X44500Y42940D02*
Y41500D01*
X45940D01*
X45884Y41780D01*
X45442Y42442D01*
X44780Y42884D01*
X44500Y42940D01*
D02*
G37*
G36*
X43500D02*
X43220Y42884D01*
X42558Y42442D01*
X42116Y41780D01*
X42060Y41500D01*
X43500D01*
Y42940D01*
D02*
G37*
G36*
X45940Y40500D02*
X44500D01*
Y39060D01*
X44780Y39116D01*
X45442Y39558D01*
X45884Y40220D01*
X45940Y40500D01*
D02*
G37*
G36*
X43500D02*
X42060D01*
X42116Y40220D01*
X42558Y39558D01*
X43220Y39116D01*
X43500Y39060D01*
Y40500D01*
D02*
G37*
G36*
X33500Y34900D02*
X31000D01*
Y32500D01*
X33500D01*
Y34900D01*
D02*
G37*
G36*
X30000D02*
X27500D01*
Y32500D01*
X30000D01*
Y34900D01*
D02*
G37*
G36*
Y31500D02*
X27500D01*
Y29100D01*
X30000D01*
Y31500D01*
D02*
G37*
G36*
X32189Y50421D02*
X31705D01*
Y49500D01*
X33511D01*
X33502Y49544D01*
X33194Y50005D01*
X32733Y50313D01*
X32189Y50421D01*
D02*
G37*
G36*
X55000Y43440D02*
Y42000D01*
X56440D01*
X56384Y42280D01*
X55942Y42942D01*
X55280Y43384D01*
X55000Y43440D01*
D02*
G37*
G36*
X54000D02*
X53720Y43384D01*
X53058Y42942D01*
X52616Y42280D01*
X52560Y42000D01*
X54000D01*
Y43440D01*
D02*
G37*
G36*
X56440Y41000D02*
X55000D01*
Y39560D01*
X55280Y39616D01*
X55942Y40058D01*
X56384Y40720D01*
X56440Y41000D01*
D02*
G37*
G36*
X54000D02*
X52560D01*
X52616Y40720D01*
X53058Y40058D01*
X53720Y39616D01*
X54000Y39560D01*
Y41000D01*
D02*
G37*
G36*
X0Y42883D02*
X-1005Y42751D01*
X-1942Y42363D01*
X-2746Y41746D01*
X-3363Y40942D01*
X-3751Y40005D01*
X-3883Y39000D01*
X-3751Y37995D01*
X-3363Y37058D01*
X-2746Y36254D01*
X-1942Y35637D01*
X-1005Y35249D01*
X0Y35117D01*
X1005Y35249D01*
X1942Y35637D01*
X2746Y36254D01*
X3363Y37058D01*
X3751Y37995D01*
X3883Y39000D01*
X3751Y40005D01*
X3363Y40942D01*
X2746Y41746D01*
X1942Y42363D01*
X1005Y42751D01*
X0Y42883D01*
D02*
G37*
G36*
Y32883D02*
X-1005Y32751D01*
X-1942Y32363D01*
X-2746Y31746D01*
X-3363Y30942D01*
X-3751Y30005D01*
X-3883Y29000D01*
X-3751Y27995D01*
X-3363Y27058D01*
X-2746Y26254D01*
X-1942Y25637D01*
X-1005Y25249D01*
X0Y25117D01*
X1005Y25249D01*
X1942Y25637D01*
X2746Y26254D01*
X3363Y27058D01*
X3751Y27995D01*
X3883Y29000D01*
X3751Y30005D01*
X3363Y30942D01*
X2746Y31746D01*
X1942Y32363D01*
X1005Y32751D01*
X0Y32883D01*
D02*
G37*
G36*
X39000Y22940D02*
Y21500D01*
X40440D01*
X40384Y21780D01*
X39942Y22442D01*
X39280Y22884D01*
X39000Y22940D01*
D02*
G37*
G36*
X38000D02*
X37720Y22884D01*
X37058Y22442D01*
X36616Y21780D01*
X36560Y21500D01*
X38000D01*
Y22940D01*
D02*
G37*
G36*
X500Y23221D02*
Y19500D01*
X4221D01*
X4141Y20109D01*
X3712Y21143D01*
X3031Y22031D01*
X2143Y22712D01*
X1110Y23141D01*
X500Y23221D01*
D02*
G37*
G36*
X-500D02*
X-1110Y23141D01*
X-2143Y22712D01*
X-3031Y22031D01*
X-3712Y21143D01*
X-4141Y20109D01*
X-4221Y19500D01*
X-500D01*
Y23221D01*
D02*
G37*
G36*
X24772Y19228D02*
X22500D01*
Y17154D01*
X24772D01*
Y19228D01*
D02*
G37*
G36*
X21500D02*
X19228D01*
Y17154D01*
X21500D01*
Y19228D01*
D02*
G37*
G36*
X46831Y19240D02*
X43575D01*
Y16772D01*
X46831D01*
Y19240D01*
D02*
G37*
G36*
X4221Y18500D02*
X500D01*
Y14779D01*
X1110Y14859D01*
X2143Y15288D01*
X3031Y15969D01*
X3712Y16857D01*
X4141Y17890D01*
X4221Y18500D01*
D02*
G37*
G36*
X-500D02*
X-4221D01*
X-4141Y17890D01*
X-3712Y16857D01*
X-3031Y15969D01*
X-2143Y15288D01*
X-1110Y14859D01*
X-500Y14779D01*
Y18500D01*
D02*
G37*
G36*
X24772Y16154D02*
X22500D01*
Y14079D01*
X24772D01*
Y16154D01*
D02*
G37*
G36*
X21500D02*
X19228D01*
Y14079D01*
X21500D01*
Y16154D01*
D02*
G37*
G36*
X32000Y12940D02*
Y11500D01*
X33440D01*
X33384Y11780D01*
X32942Y12442D01*
X32280Y12884D01*
X32000Y12940D01*
D02*
G37*
G36*
X31000D02*
X30720Y12884D01*
X30058Y12442D01*
X29616Y11780D01*
X29560Y11500D01*
X31000D01*
Y12940D01*
D02*
G37*
G36*
X33440Y10500D02*
X32000D01*
Y9060D01*
X32280Y9116D01*
X32942Y9558D01*
X33384Y10220D01*
X33440Y10500D01*
D02*
G37*
G36*
X31000D02*
X29560D01*
X29616Y10220D01*
X30058Y9558D01*
X30720Y9116D01*
X31000Y9060D01*
Y10500D01*
D02*
G37*
G36*
X51500Y8500D02*
X49100D01*
Y6000D01*
X51500D01*
Y8500D01*
D02*
G37*
G36*
X32372Y18828D02*
X27628D01*
Y15580D01*
X21116Y9068D01*
X16650D01*
X16299Y8998D01*
X16001Y8799D01*
X12908Y5705D01*
X12865Y5715D01*
X12746Y6254D01*
X13363Y7058D01*
X13751Y7995D01*
X13883Y9000D01*
X13751Y10005D01*
X13363Y10942D01*
X12746Y11746D01*
X11942Y12363D01*
X11005Y12751D01*
X10000Y12883D01*
X8995Y12751D01*
X8058Y12363D01*
X7254Y11746D01*
X6637Y10942D01*
X6249Y10005D01*
X6117Y9000D01*
X6249Y7995D01*
X6637Y7058D01*
X7254Y6254D01*
X7693Y5918D01*
X7523Y5418D01*
X5000D01*
X4649Y5348D01*
X4351Y5149D01*
X1675Y2473D01*
X1005Y2751D01*
X0Y2883D01*
X-1005Y2751D01*
X-1942Y2363D01*
X-2746Y1746D01*
X-3363Y942D01*
X-3751Y5D01*
X-3883Y-1000D01*
X-3751Y-2005D01*
X-3363Y-2942D01*
X-2746Y-3746D01*
X-1942Y-4363D01*
X-1005Y-4751D01*
X0Y-4883D01*
X1005Y-4751D01*
X1942Y-4363D01*
X2746Y-3746D01*
X3363Y-2942D01*
X3751Y-2005D01*
X3883Y-1000D01*
X3751Y5D01*
X3363Y942D01*
X3092Y1295D01*
X5380Y3582D01*
X13000D01*
X13351Y3652D01*
X13649Y3851D01*
X16650Y6852D01*
X17150Y6645D01*
Y150D01*
X24850D01*
Y7850D01*
X23147D01*
X22956Y8312D01*
X29123Y14479D01*
X32372D01*
Y18828D01*
D02*
G37*
G36*
X0Y12883D02*
X-1005Y12751D01*
X-1942Y12363D01*
X-2746Y11746D01*
X-3363Y10942D01*
X-3751Y10005D01*
X-3883Y9000D01*
X-3751Y7995D01*
X-3363Y7058D01*
X-2746Y6254D01*
X-1942Y5637D01*
X-1005Y5249D01*
X0Y5117D01*
X1005Y5249D01*
X1942Y5637D01*
X2746Y6254D01*
X3363Y7058D01*
X3751Y7995D01*
X3883Y9000D01*
X3751Y10005D01*
X3363Y10942D01*
X2746Y11746D01*
X1942Y12363D01*
X1005Y12751D01*
X0Y12883D01*
D02*
G37*
G36*
X46134Y4528D02*
X44650D01*
Y3339D01*
X46134D01*
Y4528D01*
D02*
G37*
G36*
X51500Y5000D02*
X49100D01*
Y2500D01*
X51500D01*
Y5000D01*
D02*
G37*
G36*
X31000Y7883D02*
X29995Y7751D01*
X29058Y7363D01*
X28254Y6746D01*
X27637Y5942D01*
X27249Y5005D01*
X27117Y4000D01*
X27249Y2995D01*
X27637Y2058D01*
X28254Y1254D01*
X29058Y637D01*
X29995Y249D01*
X31000Y117D01*
X32005Y249D01*
X32942Y637D01*
X33746Y1254D01*
X34363Y2058D01*
X34751Y2995D01*
X34883Y4000D01*
X34751Y5005D01*
X34363Y5942D01*
X33746Y6746D01*
X32942Y7363D01*
X32005Y7751D01*
X31000Y7883D01*
D02*
G37*
G36*
X13850Y2850D02*
X6150D01*
Y-4850D01*
X13850D01*
Y2850D01*
D02*
G37*
%LPD*%
D10*
X37850Y2839D02*
D03*
Y280D02*
D03*
Y-2279D02*
D03*
Y-4839D02*
D03*
X44150D02*
D03*
Y-2279D02*
D03*
Y280D02*
D03*
Y2839D02*
D03*
D11*
X21165Y51165D02*
D03*
X22740D02*
D03*
X24315D02*
D03*
X25890D02*
D03*
X27465D02*
D03*
X29039D02*
D03*
Y38961D02*
D03*
X27465D02*
D03*
X25890D02*
D03*
X24315D02*
D03*
X22740D02*
D03*
X21165D02*
D03*
D12*
X31205Y49000D02*
D03*
Y47425D02*
D03*
Y45850D02*
D03*
Y44276D02*
D03*
Y42701D02*
D03*
Y41126D02*
D03*
X19000D02*
D03*
Y42701D02*
D03*
Y44276D02*
D03*
Y45850D02*
D03*
Y47425D02*
D03*
Y49000D02*
D03*
D13*
X45500Y33347D02*
D03*
Y26654D02*
D03*
X38500Y33347D02*
D03*
Y26654D02*
D03*
X30000Y23347D02*
D03*
Y16654D02*
D03*
X22000Y23347D02*
D03*
Y16654D02*
D03*
D14*
X23500Y32000D02*
D03*
X30500D02*
D03*
X38500Y50000D02*
D03*
X45500D02*
D03*
D15*
X47331Y12260D02*
D03*
Y19740D02*
D03*
X38669Y16000D02*
D03*
D16*
X52000Y-1500D02*
D03*
Y5500D02*
D03*
D17*
X25890Y34790D02*
Y38961D01*
X23500Y32400D02*
X25890Y34790D01*
X23500Y32000D02*
Y32400D01*
X22740Y36300D02*
Y38961D01*
X21940Y35500D02*
X22740Y36300D01*
X18500Y35500D02*
X21940D01*
X14500Y39500D02*
X18500Y35500D01*
X14500Y39500D02*
Y50000D01*
X32892Y26654D02*
X38500D01*
X32438Y26200D02*
X32892Y26654D01*
X15200Y26200D02*
X32438D01*
X12500Y23500D02*
X15200Y26200D01*
X37796Y9800D02*
X44871D01*
X34500Y13096D02*
X37796Y9800D01*
X34500Y13096D02*
Y18846D01*
X44871Y9800D02*
X47331Y12260D01*
X30000Y23347D02*
X34500Y18846D01*
X40161Y-2279D02*
X42720Y280D01*
X37850Y-2279D02*
X40161D01*
X37850Y2839D02*
X40161D01*
X42720Y280D01*
X44150D01*
X7000Y23500D02*
X12500D01*
X5500Y25000D02*
X7000Y23500D01*
X5500Y25000D02*
Y34500D01*
X9500Y38500D01*
X22000Y23347D02*
X30000D01*
X21165Y51165D02*
Y52335D01*
X20000Y53500D02*
X21165Y52335D01*
X5000Y53500D02*
X20000D01*
X5000Y43500D02*
Y53500D01*
Y43500D02*
X10500Y38000D01*
X14500Y50000D02*
X15500Y49000D01*
X19000D01*
X0Y-500D02*
X5000Y4500D01*
X13000D01*
X16650Y8150D01*
X21496D01*
X30000Y16654D01*
X38500Y33347D02*
X45500D01*
X38500D02*
Y34900D01*
X36000Y37400D02*
X38500Y34900D01*
X31205Y41126D02*
X37226D01*
X38500Y42400D01*
Y50000D01*
X36000Y37400D02*
Y39900D01*
X37226Y41126D01*
X42232Y22922D02*
X50146D01*
X38500Y26654D02*
X42232Y22922D01*
X45500Y26654D02*
X49271D01*
X22740Y51165D02*
Y53240D01*
X23000Y53500D01*
X45500Y26654D02*
X51000Y32154D01*
Y52500D01*
X50000Y53500D02*
X51000Y52500D01*
X23000Y53500D02*
X50000D01*
X32721Y-2279D02*
X37850D01*
X31500Y-3500D02*
X32721Y-2279D01*
X10000Y50000D02*
X14500D01*
X50146Y22922D02*
X55300Y17768D01*
Y-3373D02*
Y17768D01*
X44150Y-4839D02*
X45139Y-5828D01*
X54542D01*
X49271Y26654D02*
X56500Y19424D01*
X54542Y-5828D02*
X56500Y-3870D01*
Y19424D01*
X47829Y-4400D02*
X54273D01*
X55300Y-3373D01*
X44150Y-2279D02*
X45709D01*
X47829Y-4400D01*
X50221Y280D02*
X52000Y-1500D01*
X44150Y280D02*
X50221D01*
D18*
X31900Y27500D02*
X33628Y29228D01*
X10000Y27500D02*
X31900D01*
X33628Y29228D02*
X42925D01*
X45500Y26654D01*
D19*
X38500Y11500D02*
X38669Y11669D01*
Y16000D01*
D20*
X-6000Y-7000D02*
Y55000D01*
X57500D01*
X-6000Y-7000D02*
X57500D01*
Y55000D01*
D21*
X0Y49000D02*
D03*
X10000D02*
D03*
Y9000D02*
D03*
Y19000D02*
D03*
Y29000D02*
D03*
Y39000D02*
D03*
X0D02*
D03*
Y29000D02*
D03*
Y19000D02*
D03*
Y9000D02*
D03*
Y-1000D02*
D03*
X31000Y4000D02*
D03*
D22*
X10000Y-1000D02*
D03*
D23*
X21000Y4000D02*
D03*
D24*
X38500Y11500D02*
D03*
X36000Y37400D02*
D03*
X31500Y-3500D02*
D03*
D25*
X35500Y44000D02*
D03*
X44000Y41000D02*
D03*
X54500Y41500D02*
D03*
X31500Y11000D02*
D03*
X37500Y6500D02*
D03*
X38500Y21000D02*
D03*
X25000Y45000D02*
D03*
M02*
