G04 Layer_Color=32896*
%FSLAX25Y25*%
%MOIN*%
G70*
G01*
G75*
%ADD20C,0.00100*%
%ADD41C,0.00248*%
G36*
X23780Y11321D02*
X23826Y11254D01*
X23880Y11187D01*
X23930Y11129D01*
X23980Y11079D01*
X24017Y11038D01*
X24034Y11025D01*
X24046Y11013D01*
X24051Y11009D01*
X24055Y11004D01*
X24142Y10934D01*
X24229Y10867D01*
X24313Y10809D01*
X24396Y10763D01*
X24467Y10721D01*
X24496Y10705D01*
X24521Y10692D01*
X24541Y10680D01*
X24558Y10676D01*
X24566Y10667D01*
X24571D01*
Y10326D01*
X24508Y10351D01*
X24446Y10380D01*
X24383Y10409D01*
X24325Y10439D01*
X24275Y10464D01*
X24234Y10484D01*
X24209Y10501D01*
X24205Y10505D01*
X24200D01*
X24125Y10551D01*
X24059Y10597D01*
X24001Y10638D01*
X23955Y10676D01*
X23913Y10705D01*
X23888Y10730D01*
X23867Y10746D01*
X23863Y10751D01*
Y8500D01*
X23510D01*
Y11391D01*
X23739D01*
X23780Y11321D01*
D02*
G37*
G36*
X20423D02*
X20469Y11254D01*
X20523Y11187D01*
X20573Y11129D01*
X20623Y11079D01*
X20660Y11038D01*
X20677Y11025D01*
X20689Y11013D01*
X20693Y11009D01*
X20698Y11004D01*
X20785Y10934D01*
X20872Y10867D01*
X20956Y10809D01*
X21039Y10763D01*
X21109Y10721D01*
X21139Y10705D01*
X21163Y10692D01*
X21184Y10680D01*
X21201Y10676D01*
X21209Y10667D01*
X21213D01*
Y10326D01*
X21151Y10351D01*
X21089Y10380D01*
X21026Y10409D01*
X20968Y10439D01*
X20918Y10464D01*
X20877Y10484D01*
X20852Y10501D01*
X20847Y10505D01*
X20843D01*
X20768Y10551D01*
X20702Y10597D01*
X20643Y10638D01*
X20598Y10676D01*
X20556Y10705D01*
X20531Y10730D01*
X20510Y10746D01*
X20506Y10751D01*
Y8500D01*
X20153D01*
Y11391D01*
X20381D01*
X20423Y11321D01*
D02*
G37*
G36*
X36306Y8500D02*
X35923D01*
Y9856D01*
X34434D01*
Y8500D01*
X34051D01*
Y11379D01*
X34434D01*
Y10197D01*
X35923D01*
Y11379D01*
X36306D01*
Y8500D01*
D02*
G37*
G36*
X46993Y10630D02*
X47080Y10622D01*
X47164Y10609D01*
X47230Y10597D01*
X47288Y10584D01*
X47330Y10572D01*
X47347Y10567D01*
X47359Y10563D01*
X47363Y10559D01*
X47367D01*
X47438Y10530D01*
X47501Y10493D01*
X47555Y10459D01*
X47600Y10426D01*
X47634Y10393D01*
X47659Y10368D01*
X47675Y10351D01*
X47679Y10347D01*
X47717Y10293D01*
X47750Y10235D01*
X47775Y10176D01*
X47796Y10122D01*
X47813Y10068D01*
X47825Y10031D01*
X47829Y10014D01*
Y10002D01*
X47833Y9998D01*
Y9993D01*
X47488Y9948D01*
X47463Y10023D01*
X47438Y10089D01*
X47409Y10143D01*
X47384Y10185D01*
X47359Y10218D01*
X47338Y10239D01*
X47322Y10251D01*
X47317Y10255D01*
X47267Y10285D01*
X47209Y10305D01*
X47147Y10322D01*
X47089Y10330D01*
X47030Y10339D01*
X46989Y10343D01*
X46947D01*
X46852Y10339D01*
X46768Y10326D01*
X46702Y10305D01*
X46643Y10285D01*
X46602Y10260D01*
X46569Y10243D01*
X46548Y10226D01*
X46544Y10222D01*
X46510Y10185D01*
X46485Y10139D01*
X46465Y10089D01*
X46452Y10039D01*
X46444Y9993D01*
X46440Y9952D01*
Y9927D01*
Y9923D01*
Y9919D01*
Y9910D01*
Y9894D01*
Y9865D01*
X46444Y9839D01*
Y9831D01*
Y9827D01*
X46485Y9815D01*
X46531Y9802D01*
X46627Y9777D01*
X46735Y9756D01*
X46835Y9736D01*
X46885Y9727D01*
X46931Y9723D01*
X46972Y9715D01*
X47005Y9711D01*
X47035Y9706D01*
X47055D01*
X47072Y9702D01*
X47076D01*
X47151Y9694D01*
X47213Y9681D01*
X47267Y9673D01*
X47309Y9665D01*
X47342Y9661D01*
X47367Y9652D01*
X47384Y9648D01*
X47388D01*
X47442Y9631D01*
X47488Y9615D01*
X47534Y9594D01*
X47571Y9577D01*
X47605Y9561D01*
X47625Y9544D01*
X47642Y9536D01*
X47646Y9532D01*
X47688Y9503D01*
X47721Y9469D01*
X47754Y9436D01*
X47779Y9403D01*
X47800Y9374D01*
X47817Y9349D01*
X47825Y9332D01*
X47829Y9328D01*
X47850Y9282D01*
X47867Y9232D01*
X47879Y9186D01*
X47887Y9141D01*
X47892Y9103D01*
X47896Y9074D01*
Y9057D01*
Y9049D01*
X47892Y8999D01*
X47887Y8958D01*
X47867Y8870D01*
X47837Y8800D01*
X47804Y8737D01*
X47771Y8687D01*
X47742Y8650D01*
X47721Y8629D01*
X47713Y8621D01*
X47638Y8567D01*
X47555Y8525D01*
X47463Y8496D01*
X47380Y8475D01*
X47305Y8463D01*
X47272Y8458D01*
X47243D01*
X47218Y8454D01*
X47184D01*
X47109Y8458D01*
X47035Y8467D01*
X46968Y8475D01*
X46910Y8488D01*
X46864Y8500D01*
X46827Y8512D01*
X46802Y8517D01*
X46793Y8521D01*
X46723Y8550D01*
X46656Y8587D01*
X46594Y8629D01*
X46531Y8666D01*
X46481Y8704D01*
X46444Y8733D01*
X46419Y8754D01*
X46415Y8762D01*
X46411D01*
X46402Y8708D01*
X46394Y8658D01*
X46386Y8612D01*
X46373Y8575D01*
X46361Y8542D01*
X46352Y8521D01*
X46348Y8504D01*
X46344Y8500D01*
X45974D01*
X45995Y8546D01*
X46015Y8591D01*
X46032Y8633D01*
X46040Y8671D01*
X46053Y8704D01*
X46057Y8729D01*
X46061Y8745D01*
Y8750D01*
X46065Y8779D01*
X46069Y8816D01*
Y8858D01*
X46074Y8903D01*
X46078Y9008D01*
Y9111D01*
X46082Y9211D01*
Y9257D01*
Y9295D01*
Y9328D01*
Y9353D01*
Y9369D01*
Y9374D01*
Y9848D01*
Y9927D01*
X46086Y9998D01*
X46090Y10052D01*
Y10097D01*
X46094Y10131D01*
X46099Y10156D01*
X46103Y10168D01*
Y10172D01*
X46115Y10226D01*
X46132Y10272D01*
X46148Y10310D01*
X46169Y10347D01*
X46186Y10372D01*
X46198Y10393D01*
X46207Y10405D01*
X46211Y10409D01*
X46244Y10443D01*
X46282Y10476D01*
X46323Y10501D01*
X46365Y10526D01*
X46402Y10543D01*
X46431Y10555D01*
X46452Y10563D01*
X46461Y10567D01*
X46527Y10588D01*
X46598Y10605D01*
X46668Y10617D01*
X46739Y10626D01*
X46802Y10630D01*
X46847Y10634D01*
X46893D01*
X46993Y10630D01*
D02*
G37*
G36*
X41660Y9582D02*
X42421Y8500D01*
X41993D01*
X41431Y9299D01*
X41331Y9145D01*
X40899Y8500D01*
X40466D01*
X41227Y9582D01*
X40516Y10588D01*
X40944D01*
X41298Y10093D01*
X41352Y10014D01*
X41377Y9977D01*
X41402Y9939D01*
X41423Y9910D01*
X41439Y9885D01*
X41452Y9869D01*
X41456Y9865D01*
X41477Y9902D01*
X41502Y9939D01*
X41527Y9977D01*
X41548Y10014D01*
X41568Y10043D01*
X41585Y10073D01*
X41597Y10089D01*
X41602Y10093D01*
X41930Y10588D01*
X42363D01*
X41660Y9582D01*
D02*
G37*
G36*
X26189Y8500D02*
X25852D01*
X25057Y10588D01*
X25423D01*
X25885Y9311D01*
X25914Y9228D01*
X25943Y9153D01*
X25964Y9082D01*
X25985Y9028D01*
X25997Y8978D01*
X26010Y8945D01*
X26014Y8924D01*
X26018Y8916D01*
X26043Y8995D01*
X26064Y9074D01*
X26089Y9145D01*
X26110Y9207D01*
X26126Y9261D01*
X26139Y9303D01*
X26143Y9315D01*
X26147Y9328D01*
X26151Y9332D01*
Y9336D01*
X26601Y10588D01*
X26975D01*
X26189Y8500D01*
D02*
G37*
G36*
X50175Y11104D02*
Y10588D01*
X50437D01*
Y10314D01*
X50175D01*
Y9107D01*
Y9049D01*
Y8999D01*
X50171Y8953D01*
X50167Y8908D01*
Y8870D01*
X50163Y8837D01*
X50155Y8783D01*
X50146Y8741D01*
X50142Y8712D01*
X50134Y8696D01*
Y8691D01*
X50117Y8654D01*
X50092Y8625D01*
X50067Y8596D01*
X50046Y8575D01*
X50021Y8554D01*
X50005Y8542D01*
X49992Y8533D01*
X49988Y8529D01*
X49942Y8508D01*
X49897Y8496D01*
X49847Y8483D01*
X49797Y8479D01*
X49755Y8475D01*
X49722Y8471D01*
X49689D01*
X49597Y8475D01*
X49551Y8479D01*
X49510Y8488D01*
X49472Y8492D01*
X49443Y8496D01*
X49427Y8500D01*
X49418D01*
X49464Y8812D01*
X49497Y8808D01*
X49531Y8804D01*
X49560D01*
X49580Y8800D01*
X49622D01*
X49676Y8804D01*
X49714Y8812D01*
X49734Y8820D01*
X49743Y8824D01*
X49772Y8845D01*
X49788Y8866D01*
X49801Y8883D01*
X49805Y8891D01*
X49809Y8912D01*
X49813Y8941D01*
X49818Y9008D01*
X49822Y9037D01*
Y9062D01*
Y9078D01*
Y9087D01*
Y10314D01*
X49464D01*
Y10588D01*
X49822D01*
Y11316D01*
X50175Y11104D01*
D02*
G37*
G36*
X45479D02*
Y10588D01*
X45741D01*
Y10314D01*
X45479D01*
Y9107D01*
Y9049D01*
Y8999D01*
X45475Y8953D01*
X45470Y8908D01*
Y8870D01*
X45466Y8837D01*
X45458Y8783D01*
X45450Y8741D01*
X45445Y8712D01*
X45437Y8696D01*
Y8691D01*
X45421Y8654D01*
X45395Y8625D01*
X45371Y8596D01*
X45350Y8575D01*
X45325Y8554D01*
X45308Y8542D01*
X45296Y8533D01*
X45292Y8529D01*
X45246Y8508D01*
X45200Y8496D01*
X45150Y8483D01*
X45100Y8479D01*
X45059Y8475D01*
X45025Y8471D01*
X44992D01*
X44901Y8475D01*
X44855Y8479D01*
X44813Y8488D01*
X44776Y8492D01*
X44747Y8496D01*
X44730Y8500D01*
X44722D01*
X44767Y8812D01*
X44801Y8808D01*
X44834Y8804D01*
X44863D01*
X44884Y8800D01*
X44925D01*
X44980Y8804D01*
X45017Y8812D01*
X45038Y8820D01*
X45046Y8824D01*
X45075Y8845D01*
X45092Y8866D01*
X45104Y8883D01*
X45109Y8891D01*
X45113Y8912D01*
X45117Y8941D01*
X45121Y9008D01*
X45125Y9037D01*
Y9062D01*
Y9078D01*
Y9087D01*
Y10314D01*
X44767D01*
Y10588D01*
X45125D01*
Y11316D01*
X45479Y11104D01*
D02*
G37*
G36*
X44426Y9295D02*
Y9216D01*
X44422Y9145D01*
X44418Y9091D01*
X44414Y9041D01*
Y9008D01*
X44410Y8983D01*
X44405Y8966D01*
Y8962D01*
X44393Y8908D01*
X44376Y8858D01*
X44360Y8812D01*
X44339Y8775D01*
X44322Y8741D01*
X44310Y8721D01*
X44301Y8704D01*
X44297Y8700D01*
X44264Y8662D01*
X44227Y8629D01*
X44189Y8600D01*
X44148Y8575D01*
X44114Y8554D01*
X44085Y8537D01*
X44069Y8529D01*
X44060Y8525D01*
X43998Y8500D01*
X43940Y8483D01*
X43881Y8471D01*
X43827Y8463D01*
X43781Y8458D01*
X43744Y8454D01*
X43715D01*
X43640Y8458D01*
X43565Y8471D01*
X43499Y8488D01*
X43432Y8508D01*
X43374Y8537D01*
X43320Y8567D01*
X43270Y8596D01*
X43224Y8629D01*
X43182Y8662D01*
X43149Y8691D01*
X43120Y8725D01*
X43095Y8750D01*
X43074Y8770D01*
X43062Y8787D01*
X43053Y8800D01*
X43049Y8804D01*
Y8500D01*
X42733D01*
Y10588D01*
X43087D01*
Y9469D01*
X43091Y9374D01*
X43095Y9290D01*
X43103Y9220D01*
X43116Y9161D01*
X43128Y9116D01*
X43137Y9082D01*
X43141Y9066D01*
X43145Y9057D01*
X43170Y9008D01*
X43199Y8966D01*
X43232Y8929D01*
X43266Y8895D01*
X43295Y8870D01*
X43320Y8854D01*
X43336Y8841D01*
X43345Y8837D01*
X43399Y8812D01*
X43453Y8791D01*
X43503Y8779D01*
X43549Y8766D01*
X43586Y8762D01*
X43615Y8758D01*
X43644D01*
X43702Y8762D01*
X43752Y8770D01*
X43798Y8783D01*
X43835Y8800D01*
X43869Y8812D01*
X43890Y8824D01*
X43906Y8833D01*
X43910Y8837D01*
X43948Y8870D01*
X43977Y8903D01*
X44002Y8941D01*
X44023Y8974D01*
X44035Y9008D01*
X44043Y9032D01*
X44052Y9049D01*
Y9053D01*
X44060Y9099D01*
X44064Y9153D01*
X44069Y9216D01*
Y9278D01*
X44073Y9336D01*
Y9382D01*
Y9403D01*
Y9415D01*
Y9424D01*
Y9428D01*
Y10588D01*
X44426D01*
Y9295D01*
D02*
G37*
G36*
X48395Y10630D02*
X48436Y10622D01*
X48478Y10609D01*
X48511Y10597D01*
X48536Y10584D01*
X48561Y10572D01*
X48574Y10563D01*
X48578Y10559D01*
X48615Y10526D01*
X48653Y10484D01*
X48690Y10434D01*
X48724Y10389D01*
X48757Y10343D01*
X48778Y10305D01*
X48794Y10276D01*
X48798Y10272D01*
Y10588D01*
X49119D01*
Y8500D01*
X48765D01*
Y9590D01*
X48761Y9673D01*
X48757Y9748D01*
X48748Y9819D01*
X48736Y9881D01*
X48724Y9931D01*
X48715Y9968D01*
X48711Y9993D01*
X48707Y10002D01*
X48690Y10047D01*
X48669Y10085D01*
X48649Y10118D01*
X48628Y10147D01*
X48607Y10168D01*
X48595Y10185D01*
X48582Y10193D01*
X48578Y10197D01*
X48545Y10222D01*
X48507Y10239D01*
X48470Y10251D01*
X48441Y10260D01*
X48412Y10264D01*
X48391Y10268D01*
X48370D01*
X48324Y10264D01*
X48278Y10255D01*
X48233Y10243D01*
X48195Y10231D01*
X48162Y10218D01*
X48137Y10206D01*
X48120Y10197D01*
X48116Y10193D01*
X47987Y10518D01*
X48058Y10555D01*
X48125Y10584D01*
X48183Y10605D01*
X48237Y10622D01*
X48283Y10630D01*
X48320Y10634D01*
X48349D01*
X48395Y10630D01*
D02*
G37*
G36*
X39318Y8500D02*
X38914D01*
X38602Y9374D01*
X37396D01*
X37059Y8500D01*
X36626D01*
X37804Y11379D01*
X38219D01*
X39318Y8500D01*
D02*
G37*
G36*
X33411D02*
X33028D01*
Y9777D01*
X32537D01*
X32491Y9773D01*
X32458D01*
X32429Y9769D01*
X32408Y9765D01*
X32391D01*
X32383Y9760D01*
X32379D01*
X32312Y9740D01*
X32283Y9727D01*
X32258Y9715D01*
X32233Y9702D01*
X32217Y9694D01*
X32208Y9690D01*
X32204Y9686D01*
X32171Y9661D01*
X32138Y9631D01*
X32075Y9569D01*
X32046Y9540D01*
X32025Y9515D01*
X32013Y9498D01*
X32009Y9494D01*
X31967Y9436D01*
X31921Y9374D01*
X31876Y9307D01*
X31830Y9245D01*
X31792Y9186D01*
X31763Y9141D01*
X31751Y9124D01*
X31742Y9111D01*
X31734Y9103D01*
Y9099D01*
X31356Y8500D01*
X30881D01*
X31376Y9282D01*
X31435Y9365D01*
X31489Y9440D01*
X31543Y9503D01*
X31589Y9561D01*
X31630Y9602D01*
X31663Y9636D01*
X31684Y9657D01*
X31692Y9665D01*
X31726Y9690D01*
X31763Y9719D01*
X31838Y9765D01*
X31871Y9781D01*
X31896Y9798D01*
X31913Y9806D01*
X31921Y9810D01*
X31846Y9823D01*
X31776Y9835D01*
X31713Y9856D01*
X31651Y9873D01*
X31597Y9894D01*
X31547Y9919D01*
X31501Y9939D01*
X31460Y9960D01*
X31426Y9985D01*
X31393Y10006D01*
X31368Y10023D01*
X31347Y10039D01*
X31331Y10052D01*
X31318Y10064D01*
X31314Y10068D01*
X31310Y10073D01*
X31277Y10114D01*
X31243Y10156D01*
X31193Y10243D01*
X31160Y10330D01*
X31135Y10414D01*
X31118Y10484D01*
X31114Y10513D01*
Y10543D01*
X31110Y10563D01*
Y10580D01*
Y10588D01*
Y10593D01*
X31114Y10680D01*
X31127Y10759D01*
X31148Y10834D01*
X31168Y10896D01*
X31193Y10950D01*
X31210Y10992D01*
X31227Y11017D01*
X31231Y11021D01*
Y11025D01*
X31281Y11092D01*
X31331Y11150D01*
X31385Y11200D01*
X31435Y11237D01*
X31480Y11266D01*
X31518Y11283D01*
X31543Y11295D01*
X31547Y11300D01*
X31551D01*
X31589Y11312D01*
X31634Y11325D01*
X31726Y11345D01*
X31826Y11358D01*
X31917Y11370D01*
X32004Y11375D01*
X32042D01*
X32075Y11379D01*
X33411D01*
Y8500D01*
D02*
G37*
G36*
X22403D02*
X22000D01*
Y8903D01*
X22403D01*
Y8500D01*
D02*
G37*
G36*
X51989Y11424D02*
X52085Y11412D01*
X52176Y11395D01*
X52255Y11379D01*
X52318Y11362D01*
X52347Y11354D01*
X52368Y11345D01*
X52384Y11337D01*
X52397Y11333D01*
X52405Y11329D01*
X52409D01*
X52492Y11287D01*
X52567Y11241D01*
X52630Y11191D01*
X52680Y11146D01*
X52717Y11104D01*
X52746Y11071D01*
X52767Y11046D01*
X52771Y11042D01*
Y11038D01*
X52813Y10967D01*
X52842Y10896D01*
X52863Y10825D01*
X52875Y10763D01*
X52883Y10709D01*
X52892Y10667D01*
Y10651D01*
Y10638D01*
Y10634D01*
Y10630D01*
X52888Y10559D01*
X52875Y10493D01*
X52859Y10430D01*
X52842Y10376D01*
X52825Y10335D01*
X52809Y10301D01*
X52796Y10281D01*
X52792Y10272D01*
X52750Y10214D01*
X52701Y10160D01*
X52651Y10114D01*
X52601Y10077D01*
X52559Y10043D01*
X52522Y10023D01*
X52497Y10006D01*
X52492Y10002D01*
X52488D01*
X52455Y9985D01*
X52418Y9968D01*
X52334Y9939D01*
X52239Y9910D01*
X52147Y9881D01*
X52064Y9856D01*
X52027Y9848D01*
X51993Y9839D01*
X51968Y9831D01*
X51947Y9827D01*
X51935Y9823D01*
X51931D01*
X51860Y9806D01*
X51794Y9790D01*
X51735Y9773D01*
X51685Y9760D01*
X51635Y9748D01*
X51594Y9736D01*
X51556Y9727D01*
X51527Y9715D01*
X51498Y9706D01*
X51477Y9702D01*
X51444Y9690D01*
X51423Y9686D01*
X51419Y9681D01*
X51357Y9657D01*
X51303Y9627D01*
X51257Y9598D01*
X51224Y9573D01*
X51195Y9548D01*
X51178Y9532D01*
X51165Y9519D01*
X51161Y9515D01*
X51132Y9478D01*
X51111Y9436D01*
X51099Y9394D01*
X51086Y9361D01*
X51082Y9328D01*
X51078Y9303D01*
Y9282D01*
Y9278D01*
X51082Y9228D01*
X51091Y9182D01*
X51103Y9141D01*
X51120Y9107D01*
X51136Y9074D01*
X51149Y9053D01*
X51157Y9037D01*
X51161Y9032D01*
X51195Y8991D01*
X51236Y8958D01*
X51278Y8929D01*
X51315Y8899D01*
X51353Y8883D01*
X51382Y8866D01*
X51403Y8858D01*
X51411Y8854D01*
X51473Y8833D01*
X51540Y8816D01*
X51606Y8808D01*
X51665Y8800D01*
X51715Y8795D01*
X51756Y8791D01*
X51794D01*
X51885Y8795D01*
X51968Y8804D01*
X52043Y8816D01*
X52110Y8833D01*
X52164Y8849D01*
X52205Y8862D01*
X52218Y8866D01*
X52230Y8870D01*
X52235Y8874D01*
X52239D01*
X52305Y8908D01*
X52368Y8945D01*
X52413Y8983D01*
X52455Y9020D01*
X52488Y9049D01*
X52509Y9078D01*
X52522Y9095D01*
X52526Y9099D01*
X52555Y9153D01*
X52584Y9211D01*
X52601Y9274D01*
X52617Y9328D01*
X52630Y9382D01*
X52638Y9419D01*
Y9436D01*
X52642Y9448D01*
Y9453D01*
Y9457D01*
X53000Y9424D01*
X52992Y9319D01*
X52975Y9220D01*
X52950Y9132D01*
X52921Y9053D01*
X52892Y8991D01*
X52879Y8966D01*
X52871Y8945D01*
X52859Y8929D01*
X52854Y8916D01*
X52846Y8908D01*
Y8903D01*
X52784Y8824D01*
X52717Y8754D01*
X52646Y8696D01*
X52580Y8646D01*
X52522Y8608D01*
X52472Y8583D01*
X52455Y8575D01*
X52443Y8567D01*
X52434Y8562D01*
X52430D01*
X52326Y8525D01*
X52218Y8496D01*
X52110Y8479D01*
X52006Y8463D01*
X51956Y8458D01*
X51914Y8454D01*
X51877D01*
X51844Y8450D01*
X51777D01*
X51665Y8454D01*
X51561Y8467D01*
X51465Y8488D01*
X51386Y8508D01*
X51319Y8525D01*
X51290Y8537D01*
X51265Y8546D01*
X51249Y8554D01*
X51236Y8558D01*
X51228Y8562D01*
X51224D01*
X51136Y8608D01*
X51061Y8658D01*
X50995Y8712D01*
X50941Y8762D01*
X50899Y8804D01*
X50870Y8841D01*
X50849Y8866D01*
X50845Y8870D01*
Y8874D01*
X50799Y8953D01*
X50766Y9028D01*
X50745Y9099D01*
X50729Y9166D01*
X50720Y9224D01*
X50712Y9270D01*
Y9286D01*
Y9299D01*
Y9303D01*
Y9307D01*
X50716Y9390D01*
X50729Y9469D01*
X50749Y9540D01*
X50770Y9598D01*
X50795Y9648D01*
X50812Y9686D01*
X50828Y9706D01*
X50833Y9715D01*
X50883Y9777D01*
X50941Y9835D01*
X51003Y9885D01*
X51066Y9931D01*
X51120Y9964D01*
X51165Y9989D01*
X51182Y9998D01*
X51195Y10006D01*
X51203Y10010D01*
X51207D01*
X51240Y10027D01*
X51282Y10039D01*
X51328Y10056D01*
X51378Y10073D01*
X51482Y10102D01*
X51590Y10131D01*
X51640Y10143D01*
X51685Y10156D01*
X51731Y10168D01*
X51769Y10176D01*
X51798Y10185D01*
X51823Y10189D01*
X51839Y10193D01*
X51844D01*
X51927Y10214D01*
X52002Y10231D01*
X52068Y10251D01*
X52126Y10268D01*
X52180Y10289D01*
X52226Y10305D01*
X52268Y10322D01*
X52305Y10335D01*
X52334Y10351D01*
X52359Y10364D01*
X52376Y10372D01*
X52393Y10385D01*
X52413Y10397D01*
X52418Y10401D01*
X52455Y10443D01*
X52480Y10484D01*
X52501Y10526D01*
X52513Y10567D01*
X52522Y10601D01*
X52526Y10630D01*
Y10647D01*
Y10655D01*
X52517Y10721D01*
X52501Y10780D01*
X52476Y10830D01*
X52447Y10875D01*
X52422Y10909D01*
X52397Y10938D01*
X52380Y10954D01*
X52372Y10959D01*
X52339Y10979D01*
X52305Y11000D01*
X52226Y11033D01*
X52143Y11054D01*
X52060Y11071D01*
X51985Y11079D01*
X51952Y11083D01*
X51927Y11088D01*
X51868D01*
X51752Y11083D01*
X51648Y11067D01*
X51565Y11042D01*
X51494Y11017D01*
X51440Y10992D01*
X51398Y10967D01*
X51378Y10950D01*
X51369Y10946D01*
X51311Y10888D01*
X51265Y10825D01*
X51228Y10759D01*
X51203Y10692D01*
X51186Y10630D01*
X51174Y10584D01*
X51170Y10563D01*
X51165Y10551D01*
Y10543D01*
Y10538D01*
X50799Y10567D01*
X50808Y10659D01*
X50828Y10742D01*
X50849Y10821D01*
X50878Y10888D01*
X50903Y10942D01*
X50924Y10983D01*
X50933Y10996D01*
X50941Y11009D01*
X50945Y11013D01*
Y11017D01*
X50999Y11088D01*
X51057Y11150D01*
X51120Y11204D01*
X51182Y11246D01*
X51236Y11283D01*
X51278Y11304D01*
X51294Y11312D01*
X51307Y11321D01*
X51315Y11325D01*
X51319D01*
X51411Y11358D01*
X51511Y11383D01*
X51602Y11404D01*
X51690Y11416D01*
X51769Y11424D01*
X51798D01*
X51827Y11429D01*
X51881D01*
X51989Y11424D01*
D02*
G37*
G36*
X29629D02*
X29725Y11412D01*
X29816Y11395D01*
X29895Y11379D01*
X29958Y11362D01*
X29987Y11354D01*
X30008Y11345D01*
X30024Y11337D01*
X30037Y11333D01*
X30045Y11329D01*
X30049D01*
X30132Y11287D01*
X30207Y11241D01*
X30270Y11191D01*
X30320Y11146D01*
X30357Y11104D01*
X30386Y11071D01*
X30407Y11046D01*
X30411Y11042D01*
Y11038D01*
X30453Y10967D01*
X30482Y10896D01*
X30503Y10825D01*
X30515Y10763D01*
X30523Y10709D01*
X30532Y10667D01*
Y10651D01*
Y10638D01*
Y10634D01*
Y10630D01*
X30528Y10559D01*
X30515Y10493D01*
X30499Y10430D01*
X30482Y10376D01*
X30465Y10335D01*
X30449Y10301D01*
X30436Y10281D01*
X30432Y10272D01*
X30390Y10214D01*
X30340Y10160D01*
X30291Y10114D01*
X30241Y10077D01*
X30199Y10043D01*
X30162Y10023D01*
X30137Y10006D01*
X30132Y10002D01*
X30128D01*
X30095Y9985D01*
X30058Y9968D01*
X29974Y9939D01*
X29879Y9910D01*
X29787Y9881D01*
X29704Y9856D01*
X29667Y9848D01*
X29633Y9839D01*
X29608Y9831D01*
X29588Y9827D01*
X29575Y9823D01*
X29571D01*
X29500Y9806D01*
X29434Y9790D01*
X29375Y9773D01*
X29325Y9760D01*
X29276Y9748D01*
X29234Y9736D01*
X29197Y9727D01*
X29167Y9715D01*
X29138Y9706D01*
X29117Y9702D01*
X29084Y9690D01*
X29063Y9686D01*
X29059Y9681D01*
X28997Y9657D01*
X28943Y9627D01*
X28897Y9598D01*
X28864Y9573D01*
X28835Y9548D01*
X28818Y9532D01*
X28805Y9519D01*
X28801Y9515D01*
X28772Y9478D01*
X28751Y9436D01*
X28739Y9394D01*
X28726Y9361D01*
X28722Y9328D01*
X28718Y9303D01*
Y9282D01*
Y9278D01*
X28722Y9228D01*
X28731Y9182D01*
X28743Y9141D01*
X28760Y9107D01*
X28776Y9074D01*
X28789Y9053D01*
X28797Y9037D01*
X28801Y9032D01*
X28835Y8991D01*
X28876Y8958D01*
X28918Y8929D01*
X28955Y8899D01*
X28993Y8883D01*
X29022Y8866D01*
X29043Y8858D01*
X29051Y8854D01*
X29113Y8833D01*
X29180Y8816D01*
X29246Y8808D01*
X29305Y8800D01*
X29355Y8795D01*
X29396Y8791D01*
X29434D01*
X29525Y8795D01*
X29608Y8804D01*
X29683Y8816D01*
X29750Y8833D01*
X29804Y8849D01*
X29845Y8862D01*
X29858Y8866D01*
X29870Y8870D01*
X29875Y8874D01*
X29879D01*
X29945Y8908D01*
X30008Y8945D01*
X30053Y8983D01*
X30095Y9020D01*
X30128Y9049D01*
X30149Y9078D01*
X30162Y9095D01*
X30166Y9099D01*
X30195Y9153D01*
X30224Y9211D01*
X30241Y9274D01*
X30257Y9328D01*
X30270Y9382D01*
X30278Y9419D01*
Y9436D01*
X30282Y9448D01*
Y9453D01*
Y9457D01*
X30640Y9424D01*
X30632Y9319D01*
X30615Y9220D01*
X30590Y9132D01*
X30561Y9053D01*
X30532Y8991D01*
X30519Y8966D01*
X30511Y8945D01*
X30499Y8929D01*
X30494Y8916D01*
X30486Y8908D01*
Y8903D01*
X30424Y8824D01*
X30357Y8754D01*
X30286Y8696D01*
X30220Y8646D01*
X30162Y8608D01*
X30112Y8583D01*
X30095Y8575D01*
X30083Y8567D01*
X30074Y8562D01*
X30070D01*
X29966Y8525D01*
X29858Y8496D01*
X29750Y8479D01*
X29646Y8463D01*
X29596Y8458D01*
X29554Y8454D01*
X29517D01*
X29484Y8450D01*
X29417D01*
X29305Y8454D01*
X29201Y8467D01*
X29105Y8488D01*
X29026Y8508D01*
X28959Y8525D01*
X28930Y8537D01*
X28905Y8546D01*
X28889Y8554D01*
X28876Y8558D01*
X28868Y8562D01*
X28864D01*
X28776Y8608D01*
X28701Y8658D01*
X28635Y8712D01*
X28581Y8762D01*
X28539Y8804D01*
X28510Y8841D01*
X28489Y8866D01*
X28485Y8870D01*
Y8874D01*
X28439Y8953D01*
X28406Y9028D01*
X28385Y9099D01*
X28369Y9166D01*
X28360Y9224D01*
X28352Y9270D01*
Y9286D01*
Y9299D01*
Y9303D01*
Y9307D01*
X28356Y9390D01*
X28369Y9469D01*
X28389Y9540D01*
X28410Y9598D01*
X28435Y9648D01*
X28452Y9686D01*
X28468Y9706D01*
X28473Y9715D01*
X28523Y9777D01*
X28581Y9835D01*
X28643Y9885D01*
X28706Y9931D01*
X28760Y9964D01*
X28805Y9989D01*
X28822Y9998D01*
X28835Y10006D01*
X28843Y10010D01*
X28847D01*
X28880Y10027D01*
X28922Y10039D01*
X28968Y10056D01*
X29018Y10073D01*
X29122Y10102D01*
X29230Y10131D01*
X29280Y10143D01*
X29325Y10156D01*
X29371Y10168D01*
X29409Y10176D01*
X29438Y10185D01*
X29463Y10189D01*
X29479Y10193D01*
X29484D01*
X29567Y10214D01*
X29642Y10231D01*
X29708Y10251D01*
X29766Y10268D01*
X29820Y10289D01*
X29866Y10305D01*
X29908Y10322D01*
X29945Y10335D01*
X29974Y10351D01*
X29999Y10364D01*
X30016Y10372D01*
X30033Y10385D01*
X30053Y10397D01*
X30058Y10401D01*
X30095Y10443D01*
X30120Y10484D01*
X30141Y10526D01*
X30153Y10567D01*
X30162Y10601D01*
X30166Y10630D01*
Y10647D01*
Y10655D01*
X30157Y10721D01*
X30141Y10780D01*
X30116Y10830D01*
X30087Y10875D01*
X30062Y10909D01*
X30037Y10938D01*
X30020Y10954D01*
X30012Y10959D01*
X29979Y10979D01*
X29945Y11000D01*
X29866Y11033D01*
X29783Y11054D01*
X29700Y11071D01*
X29625Y11079D01*
X29592Y11083D01*
X29567Y11088D01*
X29509D01*
X29392Y11083D01*
X29288Y11067D01*
X29205Y11042D01*
X29134Y11017D01*
X29080Y10992D01*
X29038Y10967D01*
X29018Y10950D01*
X29009Y10946D01*
X28951Y10888D01*
X28905Y10825D01*
X28868Y10759D01*
X28843Y10692D01*
X28826Y10630D01*
X28814Y10584D01*
X28810Y10563D01*
X28805Y10551D01*
Y10543D01*
Y10538D01*
X28439Y10567D01*
X28448Y10659D01*
X28468Y10742D01*
X28489Y10821D01*
X28518Y10888D01*
X28543Y10942D01*
X28564Y10983D01*
X28572Y10996D01*
X28581Y11009D01*
X28585Y11013D01*
Y11017D01*
X28639Y11088D01*
X28697Y11150D01*
X28760Y11204D01*
X28822Y11246D01*
X28876Y11283D01*
X28918Y11304D01*
X28934Y11312D01*
X28947Y11321D01*
X28955Y11325D01*
X28959D01*
X29051Y11358D01*
X29151Y11383D01*
X29242Y11404D01*
X29330Y11416D01*
X29409Y11424D01*
X29438D01*
X29467Y11429D01*
X29521D01*
X29629Y11424D01*
D02*
G37*
G36*
X31500Y-2346D02*
X30040D01*
Y-1874D01*
X31500D01*
Y-2346D01*
D02*
G37*
G36*
X21457Y-1885D02*
X22500D01*
Y-2324D01*
X21457D01*
Y-3378D01*
X21013D01*
Y-2324D01*
X19969D01*
Y-1885D01*
X21013D01*
Y-842D01*
X21457D01*
Y-1885D01*
D02*
G37*
G36*
X24879Y-6500D02*
X24513D01*
Y-4241D01*
X23007Y-6500D01*
X22612D01*
Y-3621D01*
X22978D01*
Y-5884D01*
X24488Y-3621D01*
X24879D01*
Y-6500D01*
D02*
G37*
G36*
X30000D02*
X29617D01*
Y-5194D01*
X28265D01*
Y-4853D01*
X29617D01*
Y-3962D01*
X28053D01*
Y-3621D01*
X30000D01*
Y-6500D01*
D02*
G37*
G36*
X27874D02*
X27471D01*
X27159Y-5626D01*
X25952D01*
X25615Y-6500D01*
X25183D01*
X26360Y-3621D01*
X26776D01*
X27874Y-6500D01*
D02*
G37*
%LPC*%
G36*
X46444Y9548D02*
X46440D01*
X46444Y9415D01*
X46448Y9332D01*
X46452Y9261D01*
X46461Y9203D01*
X46473Y9153D01*
X46485Y9116D01*
X46494Y9087D01*
X46498Y9070D01*
X46502Y9066D01*
X46535Y9012D01*
X46569Y8962D01*
X46610Y8920D01*
X46648Y8887D01*
X46681Y8858D01*
X46710Y8837D01*
X46727Y8824D01*
X46735Y8820D01*
X46797Y8791D01*
X46860Y8770D01*
X46918Y8754D01*
X46976Y8745D01*
X47022Y8737D01*
X47064Y8733D01*
X47097D01*
X47172Y8737D01*
X47234Y8745D01*
X47288Y8762D01*
X47334Y8779D01*
X47367Y8795D01*
X47392Y8812D01*
X47409Y8820D01*
X47413Y8824D01*
X47446Y8862D01*
X47471Y8903D01*
X47492Y8941D01*
X47505Y8978D01*
X47513Y9012D01*
X47517Y9037D01*
Y9057D01*
Y9062D01*
X47513Y9095D01*
X47509Y9128D01*
X47501Y9153D01*
X47492Y9178D01*
X47484Y9199D01*
X47480Y9216D01*
X47471Y9224D01*
Y9228D01*
X47430Y9278D01*
X47380Y9311D01*
X47363Y9324D01*
X47347Y9332D01*
X47334Y9340D01*
X47330D01*
X47288Y9357D01*
X47243Y9369D01*
X47193Y9382D01*
X47143Y9390D01*
X47097Y9399D01*
X47055Y9407D01*
X47030Y9411D01*
X47022D01*
X46951Y9424D01*
X46885Y9432D01*
X46827Y9444D01*
X46768Y9457D01*
X46714Y9469D01*
X46668Y9482D01*
X46623Y9490D01*
X46585Y9503D01*
X46552Y9511D01*
X46523Y9519D01*
X46498Y9527D01*
X46477Y9536D01*
X46461Y9540D01*
X46448Y9544D01*
X46444Y9548D01*
D02*
G37*
G36*
X38020Y11079D02*
X37991Y10983D01*
X37957Y10884D01*
X37924Y10784D01*
X37891Y10688D01*
X37874Y10647D01*
X37862Y10605D01*
X37849Y10567D01*
X37837Y10538D01*
X37828Y10513D01*
X37820Y10493D01*
X37816Y10480D01*
Y10476D01*
X37516Y9686D01*
X38490D01*
X38178Y10526D01*
X38140Y10630D01*
X38111Y10730D01*
X38082Y10821D01*
X38061Y10904D01*
X38045Y10975D01*
X38037Y11004D01*
X38032Y11033D01*
X38024Y11050D01*
Y11067D01*
X38020Y11075D01*
Y11079D01*
D02*
G37*
G36*
X33028Y11058D02*
X32121D01*
X32009Y11054D01*
X31913Y11038D01*
X31830Y11017D01*
X31767Y10992D01*
X31713Y10967D01*
X31680Y10946D01*
X31659Y10929D01*
X31651Y10925D01*
X31601Y10871D01*
X31563Y10817D01*
X31539Y10759D01*
X31518Y10709D01*
X31509Y10659D01*
X31505Y10622D01*
X31501Y10597D01*
Y10593D01*
Y10588D01*
X31505Y10538D01*
X31514Y10488D01*
X31526Y10447D01*
X31539Y10409D01*
X31555Y10376D01*
X31568Y10351D01*
X31576Y10335D01*
X31580Y10330D01*
X31609Y10289D01*
X31647Y10251D01*
X31684Y10222D01*
X31722Y10197D01*
X31755Y10181D01*
X31780Y10168D01*
X31797Y10160D01*
X31805Y10156D01*
X31863Y10139D01*
X31930Y10127D01*
X31996Y10118D01*
X32063Y10114D01*
X32121Y10110D01*
X32171Y10106D01*
X33028D01*
Y11058D01*
D02*
G37*
G36*
X26576Y-3921D02*
X26547Y-4016D01*
X26514Y-4116D01*
X26481Y-4216D01*
X26447Y-4312D01*
X26431Y-4353D01*
X26418Y-4395D01*
X26406Y-4433D01*
X26393Y-4462D01*
X26385Y-4487D01*
X26377Y-4507D01*
X26373Y-4520D01*
Y-4524D01*
X26073Y-5314D01*
X27046D01*
X26734Y-4474D01*
X26697Y-4370D01*
X26668Y-4270D01*
X26639Y-4179D01*
X26618Y-4095D01*
X26601Y-4025D01*
X26593Y-3996D01*
X26589Y-3967D01*
X26581Y-3950D01*
Y-3933D01*
X26576Y-3925D01*
Y-3921D01*
D02*
G37*
%LPD*%
D20*
X-6000Y-7000D02*
Y55000D01*
X57500D01*
X-6000Y-7000D02*
X57500D01*
Y55000D01*
D41*
X47201Y19317D02*
G03*
X47201Y54000I-11697J17342D01*
G01*
X46522Y20323D02*
G03*
X46522Y52994I-11018J16335D01*
G01*
X42016Y40136D02*
G03*
X43217Y42078I-15600J10990D01*
G01*
X23683Y24724D02*
G03*
X24082Y24746I185J271D01*
G01*
X25901Y43706D02*
G03*
X25725Y29858I9602J-7047D01*
G01*
X23709Y25123D02*
G03*
X23683Y24724I247J-216D01*
G01*
X42449Y34157D02*
G03*
X42016Y40136I-6946J2502D01*
G01*
X46657Y29740D02*
G03*
X42843Y47540I-11153J6919D01*
G01*
X41489Y35165D02*
G03*
X41191Y39048I-5986J1494D01*
G01*
X25122Y44689D02*
G03*
X23441Y31485I10381J-8031D01*
G01*
X41269Y44049D02*
G03*
X36391Y40400I8843J-16907D01*
G01*
X45789Y30651D02*
G03*
X42164Y46533I-10285J6007D01*
G01*
X24485Y52994D02*
G03*
X24485Y20323I11018J-16335D01*
G01*
X39510Y37243D02*
G03*
X41191Y39048I-13094J13880D01*
G01*
X29742Y38862D02*
G03*
X30213Y33486I5763J-2204D01*
G01*
X23806Y54000D02*
G03*
X23806Y19317I11697J-17342D01*
G01*
X28889Y39937D02*
G03*
X29435Y32454I6614J-3279D01*
G01*
X36406Y31820D02*
X37276Y12537D01*
X47477Y22826D02*
X50528Y25675D01*
X28041Y27856D02*
X34632Y32699D01*
X23709Y25123D02*
X24377Y25882D01*
X24956Y51557D02*
X36391Y40400D01*
X33731Y12537D02*
X34632Y32699D01*
X46522Y20323D02*
X47201Y19317D01*
X29742Y38862D02*
X32060Y35937D01*
X42449Y34157D02*
X45789Y30651D01*
X25725Y29858D02*
X26866Y29045D01*
X30213Y33486D02*
X32060Y35937D01*
X39510Y37243D02*
X41489Y35165D01*
X46657Y29740D02*
X50528Y25675D01*
X23806Y19317D02*
X24485Y20323D01*
X42885Y42721D02*
X43217Y42078D01*
X23806Y54000D02*
X24485Y52994D01*
X22071Y48539D02*
X25122Y44689D01*
X24082Y24746D02*
X24849Y25405D01*
X42885Y42721D02*
X43435Y44241D01*
X41909Y43709D02*
X43435Y44241D01*
X26866Y29045D02*
X29435Y32454D01*
X20282Y29977D02*
X22477Y32172D01*
X23441Y31485D01*
X22071Y48539D02*
X24956Y51557D01*
X36406Y31820D02*
X47477Y22826D01*
X24849Y25405D02*
X28894Y21261D01*
X41269Y44049D02*
X41909Y43709D01*
X46522Y52994D02*
X47201Y54000D01*
X28894Y21261D02*
X31115Y23429D01*
X42164Y46533D02*
X42843Y47540D01*
X20282Y29977D02*
X24377Y25882D01*
X25901Y43706D02*
X28889Y39937D01*
X33731Y12537D02*
X37276D01*
X28041Y27856D02*
X31115Y23429D01*
M02*
