G04 Layer_Physical_Order=2*
G04 Layer_Color=16711680*
%FSLAX25Y25*%
%MOIN*%
G70*
G01*
G75*
%ADD17C,0.00600*%
%ADD19C,0.01000*%
%ADD20C,0.00100*%
%ADD21C,0.06500*%
%ADD22R,0.06500X0.06500*%
%ADD23R,0.06500X0.06500*%
%ADD24C,0.01600*%
%ADD25C,0.02000*%
G36*
X57500Y-7000D02*
X-6000D01*
Y55000D01*
X57500D01*
Y-7000D01*
D02*
G37*
%LPC*%
G36*
X36000Y45940D02*
Y44500D01*
X37440D01*
X37384Y44780D01*
X36942Y45442D01*
X36280Y45884D01*
X36000Y45940D01*
D02*
G37*
G36*
X35000D02*
X34720Y45884D01*
X34058Y45442D01*
X33616Y44780D01*
X33560Y44500D01*
X35000D01*
Y45940D01*
D02*
G37*
G36*
X25000Y46631D02*
X24376Y46507D01*
X23846Y46154D01*
X23493Y45624D01*
X23369Y45000D01*
X23493Y44376D01*
X23846Y43846D01*
X24376Y43493D01*
X25000Y43369D01*
X25624Y43493D01*
X26153Y43846D01*
X26507Y44376D01*
X26631Y45000D01*
X26507Y45624D01*
X26153Y46154D01*
X25624Y46507D01*
X25000Y46631D01*
D02*
G37*
G36*
X37440Y43500D02*
X36000D01*
Y42060D01*
X36280Y42116D01*
X36942Y42558D01*
X37384Y43220D01*
X37440Y43500D01*
D02*
G37*
G36*
X35000D02*
X33560D01*
X33616Y43220D01*
X34058Y42558D01*
X34720Y42116D01*
X35000Y42060D01*
Y43500D01*
D02*
G37*
G36*
X55000Y43440D02*
Y42000D01*
X56440D01*
X56384Y42280D01*
X55942Y42942D01*
X55280Y43384D01*
X55000Y43440D01*
D02*
G37*
G36*
X54000D02*
X53720Y43384D01*
X53058Y42942D01*
X52616Y42280D01*
X52560Y42000D01*
X54000D01*
Y43440D01*
D02*
G37*
G36*
X44500Y42940D02*
Y41500D01*
X45940D01*
X45884Y41780D01*
X45442Y42442D01*
X44780Y42884D01*
X44500Y42940D01*
D02*
G37*
G36*
X43500D02*
X43220Y42884D01*
X42558Y42442D01*
X42116Y41780D01*
X42060Y41500D01*
X43500D01*
Y42940D01*
D02*
G37*
G36*
X56440Y41000D02*
X55000D01*
Y39560D01*
X55280Y39616D01*
X55942Y40058D01*
X56384Y40720D01*
X56440Y41000D01*
D02*
G37*
G36*
X54000D02*
X52560D01*
X52616Y40720D01*
X53058Y40058D01*
X53720Y39616D01*
X54000Y39560D01*
Y41000D01*
D02*
G37*
G36*
X10500Y43221D02*
Y39500D01*
X14221D01*
X14141Y40110D01*
X13712Y41143D01*
X13031Y42031D01*
X12143Y42712D01*
X11109Y43141D01*
X10500Y43221D01*
D02*
G37*
G36*
X9500D02*
X8890Y43141D01*
X7857Y42712D01*
X6969Y42031D01*
X6288Y41143D01*
X5859Y40110D01*
X5779Y39500D01*
X9500D01*
Y43221D01*
D02*
G37*
G36*
X45940Y40500D02*
X44500D01*
Y39060D01*
X44780Y39116D01*
X45442Y39558D01*
X45884Y40220D01*
X45940Y40500D01*
D02*
G37*
G36*
X43500D02*
X42060D01*
X42116Y40220D01*
X42558Y39558D01*
X43220Y39116D01*
X43500Y39060D01*
Y40500D01*
D02*
G37*
G36*
X14221Y38500D02*
X10500D01*
Y34779D01*
X11109Y34859D01*
X12143Y35288D01*
X13031Y35969D01*
X13712Y36857D01*
X14141Y37890D01*
X14221Y38500D01*
D02*
G37*
G36*
X9500D02*
X5779D01*
X5859Y37890D01*
X6288Y36857D01*
X6969Y35969D01*
X7857Y35288D01*
X8890Y34859D01*
X9500Y34779D01*
Y38500D01*
D02*
G37*
G36*
X39000Y22940D02*
Y21500D01*
X40440D01*
X40384Y21780D01*
X39942Y22442D01*
X39280Y22884D01*
X39000Y22940D01*
D02*
G37*
G36*
X38000D02*
X37720Y22884D01*
X37058Y22442D01*
X36616Y21780D01*
X36560Y21500D01*
X38000D01*
Y22940D01*
D02*
G37*
G36*
X500Y23221D02*
Y19500D01*
X4221D01*
X4141Y20109D01*
X3712Y21143D01*
X3031Y22031D01*
X2143Y22712D01*
X1110Y23141D01*
X500Y23221D01*
D02*
G37*
G36*
X-500D02*
X-1110Y23141D01*
X-2143Y22712D01*
X-3031Y22031D01*
X-3712Y21143D01*
X-4141Y20109D01*
X-4221Y19500D01*
X-500D01*
Y23221D01*
D02*
G37*
G36*
X40440Y20500D02*
X39000D01*
Y19060D01*
X39280Y19116D01*
X39942Y19558D01*
X40384Y20220D01*
X40440Y20500D01*
D02*
G37*
G36*
X38000D02*
X36560D01*
X36616Y20220D01*
X37058Y19558D01*
X37720Y19116D01*
X38000Y19060D01*
Y20500D01*
D02*
G37*
G36*
X4221Y18500D02*
X500D01*
Y14779D01*
X1110Y14859D01*
X2143Y15288D01*
X3031Y15969D01*
X3712Y16857D01*
X4141Y17890D01*
X4221Y18500D01*
D02*
G37*
G36*
X-500D02*
X-4221D01*
X-4141Y17890D01*
X-3712Y16857D01*
X-3031Y15969D01*
X-2143Y15288D01*
X-1110Y14859D01*
X-500Y14779D01*
Y18500D01*
D02*
G37*
G36*
X32000Y12940D02*
Y11500D01*
X33440D01*
X33384Y11780D01*
X32942Y12442D01*
X32280Y12884D01*
X32000Y12940D01*
D02*
G37*
G36*
X31000D02*
X30720Y12884D01*
X30058Y12442D01*
X29616Y11780D01*
X29560Y11500D01*
X31000D01*
Y12940D01*
D02*
G37*
G36*
X33440Y10500D02*
X32000D01*
Y9060D01*
X32280Y9116D01*
X32942Y9558D01*
X33384Y10220D01*
X33440Y10500D01*
D02*
G37*
G36*
X31000D02*
X29560D01*
X29616Y10220D01*
X30058Y9558D01*
X30720Y9116D01*
X31000Y9060D01*
Y10500D01*
D02*
G37*
G36*
X10000Y52883D02*
X8995Y52751D01*
X8058Y52363D01*
X7254Y51746D01*
X6637Y50942D01*
X6249Y50005D01*
X6117Y49000D01*
X6249Y47995D01*
X6637Y47058D01*
X7254Y46254D01*
X8058Y45637D01*
X8995Y45249D01*
X10000Y45117D01*
X11005Y45249D01*
X11942Y45637D01*
X12012Y45691D01*
X19451Y38251D01*
X24232Y33470D01*
Y7850D01*
X22121D01*
Y14152D01*
X22122Y14152D01*
X22036Y14581D01*
X21793Y14945D01*
X21793Y14945D01*
X12595Y24143D01*
X12231Y24386D01*
X11802Y24472D01*
X11802Y24472D01*
X10223D01*
X10117Y24628D01*
X10356Y25164D01*
X11005Y25249D01*
X11942Y25637D01*
X12746Y26254D01*
X13363Y27058D01*
X13751Y27995D01*
X13883Y29000D01*
X13751Y30005D01*
X13363Y30942D01*
X12746Y31746D01*
X11942Y32363D01*
X11005Y32751D01*
X10000Y32883D01*
X8995Y32751D01*
X8058Y32363D01*
X7254Y31746D01*
X6637Y30942D01*
X6622Y30904D01*
X6121Y31004D01*
Y34000D01*
X6122Y34000D01*
X6036Y34429D01*
X5793Y34793D01*
X5793Y34793D01*
X3411Y37175D01*
X3751Y37995D01*
X3883Y39000D01*
X3751Y40005D01*
X3363Y40942D01*
X2746Y41746D01*
X1942Y42363D01*
X1122Y42703D01*
Y45297D01*
X1942Y45637D01*
X2746Y46254D01*
X3363Y47058D01*
X3751Y47995D01*
X3883Y49000D01*
X3751Y50005D01*
X3363Y50942D01*
X2746Y51746D01*
X1942Y52363D01*
X1005Y52751D01*
X0Y52883D01*
X-1005Y52751D01*
X-1942Y52363D01*
X-2746Y51746D01*
X-3363Y50942D01*
X-3751Y50005D01*
X-3883Y49000D01*
X-3751Y47995D01*
X-3363Y47058D01*
X-2746Y46254D01*
X-1942Y45637D01*
X-1122Y45297D01*
Y42703D01*
X-1942Y42363D01*
X-2746Y41746D01*
X-3363Y40942D01*
X-3751Y40005D01*
X-3883Y39000D01*
X-3751Y37995D01*
X-3363Y37058D01*
X-2746Y36254D01*
X-1942Y35637D01*
X-1005Y35249D01*
X0Y35117D01*
X1005Y35249D01*
X1825Y35589D01*
X3878Y33535D01*
Y31004D01*
X3379Y30904D01*
X3363Y30942D01*
X2746Y31746D01*
X1942Y32363D01*
X1005Y32751D01*
X0Y32883D01*
X-1005Y32751D01*
X-1942Y32363D01*
X-2746Y31746D01*
X-3363Y30942D01*
X-3751Y30005D01*
X-3883Y29000D01*
X-3751Y27995D01*
X-3363Y27058D01*
X-2746Y26254D01*
X-1942Y25637D01*
X-1005Y25249D01*
X0Y25117D01*
X1005Y25249D01*
X1942Y25637D01*
X2746Y26254D01*
X3363Y27058D01*
X3473Y27324D01*
X3699Y27368D01*
X4019Y27336D01*
X4207Y27055D01*
X8335Y22927D01*
X8237Y22437D01*
X8058Y22363D01*
X7254Y21746D01*
X6637Y20942D01*
X6249Y20005D01*
X6117Y19000D01*
X6249Y17995D01*
X6637Y17058D01*
X7254Y16254D01*
X8058Y15637D01*
X8995Y15249D01*
X10000Y15117D01*
X11005Y15249D01*
X11942Y15637D01*
X12746Y16254D01*
X13363Y17058D01*
X13751Y17995D01*
X13880Y18978D01*
X14027Y19087D01*
X14330Y19236D01*
X19879Y13687D01*
Y7850D01*
X17150D01*
Y150D01*
X24850D01*
Y1199D01*
X25312Y1390D01*
X30094Y-3392D01*
X30073Y-3500D01*
X30181Y-4046D01*
X30491Y-4509D01*
X30954Y-4819D01*
X31500Y-4927D01*
X32046Y-4819D01*
X32509Y-4509D01*
X32819Y-4046D01*
X32927Y-3500D01*
X32819Y-2954D01*
X32509Y-2491D01*
X32046Y-2181D01*
X31500Y-2073D01*
X31392Y-2094D01*
X29303Y-6D01*
X29587Y418D01*
X29995Y249D01*
X31000Y117D01*
X32005Y249D01*
X32942Y637D01*
X33746Y1254D01*
X34363Y2058D01*
X34751Y2995D01*
X34883Y4000D01*
X34751Y5005D01*
X34411Y5825D01*
X34973Y6387D01*
X35516Y6223D01*
X35616Y5720D01*
X36058Y5058D01*
X36720Y4616D01*
X37000Y4560D01*
Y6500D01*
X37500D01*
Y7000D01*
X39440D01*
X39384Y7280D01*
X38942Y7942D01*
X38280Y8384D01*
X37777Y8484D01*
X37613Y9027D01*
X38698Y10112D01*
X39046Y10181D01*
X39509Y10491D01*
X39819Y10954D01*
X39927Y11500D01*
X39819Y12046D01*
X39509Y12509D01*
X39046Y12819D01*
X38500Y12927D01*
X37954Y12819D01*
X37491Y12509D01*
X37181Y12046D01*
X37112Y11698D01*
X32825Y7411D01*
X32005Y7751D01*
X31000Y7883D01*
X29995Y7751D01*
X29058Y7363D01*
X28254Y6746D01*
X27637Y5942D01*
X27249Y5005D01*
X27117Y4000D01*
X27249Y2995D01*
X27418Y2587D01*
X26994Y2303D01*
X26068Y3230D01*
Y33850D01*
X25998Y34201D01*
X25799Y34499D01*
X22777Y37520D01*
X22969Y37982D01*
X34120D01*
X34594Y37508D01*
X34573Y37400D01*
X34681Y36854D01*
X34991Y36391D01*
X35454Y36081D01*
X36000Y35973D01*
X36546Y36081D01*
X37009Y36391D01*
X37319Y36854D01*
X37427Y37400D01*
X37319Y37946D01*
X37009Y38409D01*
X36546Y38719D01*
X36000Y38827D01*
X35892Y38806D01*
X35149Y39549D01*
X34851Y39748D01*
X34500Y39818D01*
X20480D01*
X13309Y46988D01*
X13363Y47058D01*
X13751Y47995D01*
X13883Y49000D01*
X13751Y50005D01*
X13363Y50942D01*
X12746Y51746D01*
X11942Y52363D01*
X11005Y52751D01*
X10000Y52883D01*
D02*
G37*
G36*
Y12883D02*
X8995Y12751D01*
X8058Y12363D01*
X7254Y11746D01*
X6637Y10942D01*
X6249Y10005D01*
X6117Y9000D01*
X6249Y7995D01*
X6637Y7058D01*
X7254Y6254D01*
X8058Y5637D01*
X8995Y5249D01*
X10000Y5117D01*
X11005Y5249D01*
X11942Y5637D01*
X12746Y6254D01*
X13363Y7058D01*
X13751Y7995D01*
X13883Y9000D01*
X13751Y10005D01*
X13363Y10942D01*
X12746Y11746D01*
X11942Y12363D01*
X11005Y12751D01*
X10000Y12883D01*
D02*
G37*
G36*
X0D02*
X-1005Y12751D01*
X-1942Y12363D01*
X-2746Y11746D01*
X-3363Y10942D01*
X-3751Y10005D01*
X-3883Y9000D01*
X-3751Y7995D01*
X-3363Y7058D01*
X-2746Y6254D01*
X-1942Y5637D01*
X-1005Y5249D01*
X0Y5117D01*
X1005Y5249D01*
X1942Y5637D01*
X2746Y6254D01*
X3363Y7058D01*
X3751Y7995D01*
X3883Y9000D01*
X3751Y10005D01*
X3363Y10942D01*
X2746Y11746D01*
X1942Y12363D01*
X1005Y12751D01*
X0Y12883D01*
D02*
G37*
G36*
X39440Y6000D02*
X38000D01*
Y4560D01*
X38280Y4616D01*
X38942Y5058D01*
X39384Y5720D01*
X39440Y6000D01*
D02*
G37*
G36*
X13850Y2850D02*
X6150D01*
Y-4850D01*
X13850D01*
Y2850D01*
D02*
G37*
G36*
X0Y2883D02*
X-1005Y2751D01*
X-1942Y2363D01*
X-2746Y1746D01*
X-3363Y942D01*
X-3751Y5D01*
X-3883Y-1000D01*
X-3751Y-2005D01*
X-3363Y-2942D01*
X-2746Y-3746D01*
X-1942Y-4363D01*
X-1005Y-4751D01*
X0Y-4883D01*
X1005Y-4751D01*
X1942Y-4363D01*
X2746Y-3746D01*
X3363Y-2942D01*
X3751Y-2005D01*
X3883Y-1000D01*
X3751Y5D01*
X3363Y942D01*
X2746Y1746D01*
X1942Y2363D01*
X1005Y2751D01*
X0Y2883D01*
D02*
G37*
%LPD*%
D17*
X10000Y49000D02*
X20100Y38900D01*
X34500D01*
X36000Y37400D01*
X25150Y2850D02*
X31500Y-3500D01*
X25150Y2850D02*
Y33850D01*
X20100Y38900D02*
X25150Y33850D01*
D19*
X31000Y4000D02*
X38500Y11500D01*
X0Y39000D02*
Y49000D01*
X9498Y23350D02*
X11802D01*
X21000Y14152D01*
Y4000D02*
Y14152D01*
X5000Y27848D02*
X9498Y23350D01*
X5000Y27848D02*
Y34000D01*
X0Y39000D02*
X5000Y34000D01*
D20*
X-6000Y-7000D02*
Y55000D01*
X57500D01*
X-6000Y-7000D02*
X57500D01*
Y55000D01*
D21*
X0Y49000D02*
D03*
X10000D02*
D03*
Y9000D02*
D03*
Y19000D02*
D03*
Y29000D02*
D03*
Y39000D02*
D03*
X0D02*
D03*
Y29000D02*
D03*
Y19000D02*
D03*
Y9000D02*
D03*
Y-1000D02*
D03*
X31000Y4000D02*
D03*
D22*
X10000Y-1000D02*
D03*
D23*
X21000Y4000D02*
D03*
D24*
X38500Y11500D02*
D03*
X36000Y37400D02*
D03*
X31500Y-3500D02*
D03*
D25*
X35500Y44000D02*
D03*
X44000Y41000D02*
D03*
X54500Y41500D02*
D03*
X31500Y11000D02*
D03*
X37500Y6500D02*
D03*
X38500Y21000D02*
D03*
X25000Y45000D02*
D03*
M02*
